<svg xmlns="http://www.w3.org/2000/svg" viewBox="0 0 1200 96" width="1200" height="96" role="img" aria-label="proyectos">
<defs>
  <linearGradient id="g" gradientUnits="userSpaceOnUse" x1="0" y1="0" x2="600" y2="0" spreadMethod="repeat">
    <stop offset="0" stop-color="#c4a7e7"/><stop offset=".35" stop-color="#e0def4"/><stop offset=".6" stop-color="#9ccfd8"/><stop offset=".8" stop-color="#ebbcba"/><stop offset="1" stop-color="#c4a7e7"/>
    <animateTransform attributeName="gradientTransform" type="translate" from="0 0" to="600 0" dur="8s" repeatCount="indefinite"/>
  </linearGradient>
  <linearGradient id="ll" x1="0" x2="1"><stop offset="0" stop-color="#c4a7e7" stop-opacity="0"/><stop offset="1" stop-color="#c4a7e7" stop-opacity=".6"/></linearGradient>
  <linearGradient id="lr" x1="0" x2="1"><stop offset="0" stop-color="#c4a7e7" stop-opacity=".6"/><stop offset="1" stop-color="#c4a7e7" stop-opacity="0"/></linearGradient>
  <linearGradient id="bg" x1="0" y1="0" x2="1" y2="1"><stop offset="0" stop-color="#191724"/><stop offset="1" stop-color="#211e33"/></linearGradient>
  <filter id="b" x="-50%" y="-50%" width="200%" height="200%"><feGaussianBlur stdDeviation="30"/></filter>
  <clipPath id="f"><rect width="1200" height="96" rx="18"/></clipPath>
</defs>
<style>
  .st { animation: tw ease-in-out infinite } @keyframes tw { 0%,100% { opacity:.12 } 50% { opacity:1 } }
  .t { font: 700 30px 'Segoe UI','Inter','Helvetica Neue',Arial,sans-serif; letter-spacing:4px; animation: in 1.1s cubic-bezier(.2,.8,.2,1) both }
  @keyframes in { from { opacity:0; letter-spacing:14px } to { opacity:1; letter-spacing:4px } }
  .sp { transform-box: fill-box; transform-origin:center; animation: r 5s linear infinite } @keyframes r { to { transform: rotate(360deg) } }
  .ln { animation: grow 1.2s .2s cubic-bezier(.2,.8,.2,1) both } @keyframes grow { from { opacity:0 } to { opacity:1 } }
  @media (prefers-reduced-motion: reduce) { * { animation: none !important } }
</style>
<g clip-path="url(#f)">
  <rect width="1200" height="96" fill="url(#bg)"/>
  <ellipse cx="600" cy="48" rx="166" ry="34" fill="#c4a7e7" opacity=".14" filter="url(#b)"/>
  <circle class="st" cx="1182" cy="14" r="1.1" fill="#9ccfd8" style="animation-duration:5.2s;animation-delay:-2.8s"/><circle class="st" cx="1161" cy="79" r="1.1" fill="#ebbcba" style="animation-duration:5.2s;animation-delay:-3.9s"/><circle class="st" cx="996" cy="72" r="1.4" fill="#ebbcba" style="animation-duration:4.2s;animation-delay:-3.3s"/><circle class="st" cx="306" cy="25" r="1.1" fill="#c4a7e7" style="animation-duration:2.7s;animation-delay:-3.4s"/><circle class="st" cx="1042" cy="79" r="1.4" fill="#e0def4" style="animation-duration:2.6s;animation-delay:-0.8s"/><circle class="st" cx="206" cy="42" r="0.7" fill="#e0def4" style="animation-duration:3.1s;animation-delay:-1.9s"/><circle class="st" cx="392" cy="33" r="1.1" fill="#ebbcba" style="animation-duration:2.9s;animation-delay:-2.9s"/><circle class="st" cx="354" cy="26" r="1.4" fill="#9ccfd8" style="animation-duration:4.8s;animation-delay:-4.7s"/><circle class="st" cx="1089" cy="36" r="1.1" fill="#9ccfd8" style="animation-duration:4.1s;animation-delay:-3.6s"/><circle class="st" cx="168" cy="33" r="0.7" fill="#e0def4" style="animation-duration:2.9s;animation-delay:-0.3s"/><circle class="st" cx="959" cy="41" r="0.9" fill="#9ccfd8" style="animation-duration:3.5s;animation-delay:-0.6s"/><circle class="st" cx="302" cy="48" r="0.7" fill="#c4a7e7" style="animation-duration:4.5s;animation-delay:-0.1s"/><circle class="st" cx="1172" cy="27" r="1.1" fill="#e0def4" style="animation-duration:5.4s;animation-delay:-3.3s"/><circle class="st" cx="396" cy="57" r="0.9" fill="#c4a7e7" style="animation-duration:4.1s;animation-delay:-1.0s"/><circle class="st" cx="83" cy="10" r="1.1" fill="#9ccfd8" style="animation-duration:4.6s;animation-delay:-0.5s"/><circle class="st" cx="820" cy="57" r="1.1" fill="#e0def4" style="animation-duration:5.3s;animation-delay:-0.1s"/><circle class="st" cx="275" cy="39" r="1.1" fill="#e0def4" style="animation-duration:4.3s;animation-delay:-2.9s"/><circle class="st" cx="822" cy="67" r="0.9" fill="#9ccfd8" style="animation-duration:2.6s;animation-delay:-2.4s"/><circle class="st" cx="10" cy="45" r="0.7" fill="#e0def4" style="animation-duration:4.2s;animation-delay:-2.8s"/><circle class="st" cx="276" cy="49" r="0.9" fill="#e0def4" style="animation-duration:3.5s;animation-delay:-3.2s"/><circle class="st" cx="903" cy="86" r="1.4" fill="#e0def4" style="animation-duration:3.9s;animation-delay:-1.9s"/><circle class="st" cx="30" cy="63" r="0.7" fill="#e0def4" style="animation-duration:3.2s;animation-delay:-3.1s"/><circle class="st" cx="357" cy="84" r="0.9" fill="#e0def4" style="animation-duration:3.4s;animation-delay:-3.2s"/><circle class="st" cx="164" cy="27" r="0.9" fill="#9ccfd8" style="animation-duration:4.5s;animation-delay:-0.2s"/>
  <rect class="ln" x="204" y="47" width="260" height="1.5" fill="url(#ll)"/>
  <rect class="ln" x="736" y="47" width="260" height="1.5" fill="url(#lr)"/>
  <g transform="translate(462 48)"><path class="sp" d="M0 -7 C.8 -.8 .8 -.8 7 0 C.8 .8 .8 .8 0 7 C-.8 .8 -.8 .8 -7 0 C-.8 -.8 -.8 -.8 0 -7Z" fill="#c4a7e7"/></g>
  <g transform="translate(738 48)"><path class="sp" d="M0 -7 C.8 -.8 .8 -.8 7 0 C.8 .8 .8 .8 0 7 C-.8 .8 -.8 .8 -7 0 C-.8 -.8 -.8 -.8 0 -7Z" fill="#c4a7e7" style="animation-direction:reverse"/></g>
  <text class="t" x="600" y="58" text-anchor="middle" fill="url(#g)">proyectos</text>
  <rect x=".75" y=".75" width="1198.5" height="94.5" rx="17.5" fill="none" stroke="#c4a7e7" stroke-opacity=".14"/>
</g>
</svg>